<?xml version="1.0" ?><svg enable-background="new 0 0 156.431 200.5047" id="apple" version="1.1" viewBox="0 0 156.431 200.5047" xml:space="preserve" xmlns="http://www.w3.org/2000/svg" xmlns:xlink="http://www.w3.org/1999/xlink"><g><path d="M156.3978,148.6172c-16.5624-5.3536-28.6268-20.7148-28.6268-39.0628   c0-16.3456,9.588-30.3456,23.3828-37.0096c-0.7324-1.2616-22.7852-38.4376-73.1524-7.9904c0,0-28.9392-19.9765-50.0719-5.7908   c0,0-43.4084,21.7032-21.9924,88.2716c0,0,15.0508,35.5976,32.1231,48.0488c0,0,11.002,10.9979,26.3396,0.2832   c0,0,19.9632-8.9708,32.9884,0.2867c0,0,16.494,11.2873,27.7792-0.5739c0,0,20.836-17.6621,31.2636-46.0216L156.3978,148.6172z" fill="#9b9b9b"/><path d="M117.0642,0c0,0-37.6192,4.0528-40.2288,46.5916C76.8354,46.5916,119.3766,43.7012,117.0642,0z" fill="#9b9b9b"/></g></svg>